<svg width="44" height="44" viewBox="0 0 44 44" fill="none" xmlns="http://www.w3.org/2000/svg">
<path d="M38.1338 14.2933C40.0418 18.2839 40.404 22.8398 39.1505 27.0818C37.897 31.3237 35.1166 34.951 31.346 37.2635C27.5754 39.5761 23.0818 40.4099 18.7325 39.6041C14.3832 38.7984 10.4866 36.4101 7.79461 32.9003C5.10266 29.3905 3.80622 25.0079 4.15551 20.5984C4.50481 16.189 6.47507 12.0652 9.68605 9.02295C12.897 5.98073 17.1211 4.23574 21.543 4.12478C25.9649 4.01381 30.2711 5.54473 33.6307 8.42207L37.5271 4.52395C37.7851 4.26594 38.135 4.12099 38.4999 4.12099C38.8647 4.12099 39.2147 4.26594 39.4727 4.52395C39.7307 4.78195 39.8756 5.13188 39.8756 5.49676C39.8756 5.86163 39.7307 6.21156 39.4727 6.46957L28.8061 17.1379L22.3247 23.6193L18.2083 27.7357C19.2725 28.4396 20.5116 28.8334 21.7869 28.8731C23.0623 28.9129 24.3235 28.5969 25.4294 27.9606C26.5354 27.3243 27.4425 26.3928 28.0492 25.2703C28.6558 24.1479 28.9382 22.8787 28.8646 21.6049C28.8441 21.2402 28.9692 20.8823 29.2126 20.61C29.456 20.3376 29.7975 20.1731 30.1622 20.1525C30.5269 20.132 30.8848 20.2572 31.1571 20.5006C31.4295 20.7439 31.5941 21.0855 31.6146 21.4502C31.7255 23.3972 31.2423 25.332 30.2291 26.9983C29.2159 28.6645 27.7204 29.9838 25.9407 30.7812C24.1611 31.5786 22.1811 31.8166 20.2632 31.4636C18.3452 31.1107 16.5797 30.1834 15.2005 28.8047C13.4851 27.083 12.4847 24.776 12.4 22.347C12.3152 19.9181 13.1526 17.547 14.7438 15.7099C16.335 13.8728 18.5623 12.7057 20.9785 12.443C23.3947 12.1802 25.8208 12.8412 27.7697 14.2933L31.6764 10.3797C28.8109 8.00063 25.1675 6.7641 21.4458 6.90764C17.7242 7.05118 14.1868 8.56466 11.5131 11.1574C8.83933 13.7501 7.21778 17.2393 6.95985 20.9548C6.70193 24.6702 7.82583 28.35 10.1157 31.2873C12.4055 34.2246 15.6999 36.2124 19.366 36.8687C23.0321 37.5251 26.8115 36.8039 29.9782 34.8435C33.1449 32.8832 35.4757 29.822 36.523 26.2478C37.5702 22.6737 37.26 18.8386 35.6519 15.4793C35.4946 15.1501 35.4746 14.772 35.5961 14.4281C35.7176 14.0842 35.9708 13.8026 36.2999 13.6454C36.629 13.4881 37.0071 13.468 37.351 13.5895C37.695 13.711 37.9765 13.9642 38.1338 14.2933Z" fill="#0071BC"/>
</svg>
