<svg width="44" height="44" viewBox="0 0 44 44" fill="none" xmlns="http://www.w3.org/2000/svg">
<path d="M41.2498 9.625V20.625C41.25 20.8971 41.1695 21.1632 41.0184 21.3895C40.8673 21.6158 40.6525 21.7922 40.4011 21.8964C40.1497 22.0005 39.8731 22.0277 39.6062 21.9746C39.3394 21.9215 39.0943 21.7903 38.902 21.5978L34.3748 17.0689L24.3476 27.0978C24.2199 27.2257 24.0683 27.3271 23.9013 27.3963C23.7344 27.4655 23.5555 27.5011 23.3748 27.5011C23.1941 27.5011 23.0152 27.4655 22.8482 27.3963C22.6813 27.3271 22.5297 27.2257 22.402 27.0978L16.4998 21.1939L5.0976 32.5978C4.83959 32.8558 4.48966 33.0008 4.12479 33.0008C3.75991 33.0008 3.40998 32.8558 3.15198 32.5978C2.89397 32.3398 2.74902 31.9899 2.74902 31.625C2.74902 31.2601 2.89397 30.9102 3.15198 30.6522L15.527 18.2772C15.6547 18.1493 15.8063 18.0479 15.9732 17.9787C16.1402 17.9095 16.3191 17.8739 16.4998 17.8739C16.6805 17.8739 16.8594 17.9095 17.0263 17.9787C17.1933 18.0479 17.3449 18.1493 17.4726 18.2772L23.3748 24.1811L32.4309 15.125L27.902 10.5978C27.7095 10.4055 27.5783 10.1604 27.5252 9.89355C27.472 9.62668 27.4993 9.35005 27.6034 9.09866C27.7076 8.84728 27.884 8.63246 28.1103 8.48138C28.3366 8.33031 28.6027 8.24979 28.8748 8.25H39.8748C40.2395 8.25 40.5892 8.39487 40.8471 8.65273C41.1049 8.91059 41.2498 9.26033 41.2498 9.625Z" fill="#009951"/>
</svg>
