<svg width="44" height="44" viewBox="0 0 44 44" fill="none" xmlns="http://www.w3.org/2000/svg">
<path d="M40.6999 32.3281L25.6694 6.22543C25.2938 5.58592 24.7576 5.05568 24.114 4.68725C23.4703 4.31882 22.7415 4.125 21.9999 4.125C21.2582 4.125 20.5295 4.31882 19.8858 4.68725C19.2422 5.05568 18.706 5.58592 18.3304 6.22543L3.29989 32.3281C2.9385 32.9466 2.74805 33.6501 2.74805 34.3665C2.74805 35.0829 2.9385 35.7864 3.29989 36.405C3.67068 37.0483 4.20596 37.5815 4.85082 37.9496C5.49568 38.3178 6.22689 38.5078 6.96942 38.5001H37.0304C37.7723 38.5072 38.5028 38.3169 39.147 37.9488C39.7912 37.5806 40.326 37.0478 40.6965 36.405C41.0584 35.7867 41.2494 35.0834 41.25 34.367C41.2506 33.6506 41.0608 32.9469 40.6999 32.3281ZM20.6249 17.8751C20.6249 17.5104 20.7698 17.1607 21.0276 16.9028C21.2855 16.645 21.6352 16.5001 21.9999 16.5001C22.3646 16.5001 22.7143 16.645 22.9722 16.9028C23.23 17.1607 23.3749 17.5104 23.3749 17.8751V24.7501C23.3749 25.1148 23.23 25.4645 22.9722 25.7224C22.7143 25.9802 22.3646 26.1251 21.9999 26.1251C21.6352 26.1251 21.2855 25.9802 21.0276 25.7224C20.7698 25.4645 20.6249 25.1148 20.6249 24.7501V17.8751ZM21.9999 33.0001C21.592 33.0001 21.1932 32.8791 20.854 32.6525C20.5149 32.4259 20.2505 32.1038 20.0944 31.7269C19.9383 31.35 19.8974 30.9353 19.977 30.5352C20.0566 30.1352 20.253 29.7677 20.5415 29.4792C20.8299 29.1908 21.1974 28.9943 21.5975 28.9147C21.9976 28.8352 22.4123 28.876 22.7892 29.0321C23.166 29.1882 23.4882 29.4526 23.7148 29.7917C23.9414 30.1309 24.0624 30.5297 24.0624 30.9376C24.0624 31.4846 23.8451 32.0092 23.4583 32.396C23.0715 32.7828 22.5469 33.0001 21.9999 33.0001Z" fill="#BF6A02"/>
</svg>
