<svg width="48" height="48" viewBox="0 0 48 48" fill="none" xmlns="http://www.w3.org/2000/svg">
<path d="M43.5005 14.9998C43.504 16.3792 43.2341 17.7456 42.7063 19.0201C42.1785 20.2945 41.4033 21.4517 40.4255 22.4248L34.7874 28.061C34.5059 28.3422 34.1243 28.5001 33.7264 28.5C33.3286 28.4998 32.9471 28.3416 32.6658 28.0601C32.3846 27.7786 32.2268 27.397 32.2269 26.9991C32.2271 26.6013 32.3853 26.2197 32.6668 25.9385L38.3049 20.3023C39.0141 19.6087 39.5786 18.7813 39.9658 17.868C40.353 16.9547 40.5552 15.9737 40.5607 14.9817C40.5662 13.9898 40.3748 13.0066 39.9977 12.0891C39.6205 11.1716 39.0651 10.338 38.3636 9.63666C37.6622 8.93529 36.8285 8.38005 35.9109 8.00308C34.9934 7.62611 34.0101 7.43491 33.0182 7.44055C32.0262 7.44619 31.0452 7.64856 30.132 8.03593C29.2188 8.4233 28.3915 8.98799 27.698 9.69729L22.0618 15.3317C21.7803 15.6131 21.3986 15.7712 21.0005 15.7712C20.6025 15.7712 20.2207 15.6131 19.9393 15.3317C19.6578 15.0502 19.4997 14.6685 19.4997 14.2704C19.4997 13.8724 19.6578 13.4906 19.9393 13.2092L25.5755 7.57479C27.044 6.10618 28.915 5.10603 30.9519 4.70082C32.9888 4.29562 35.1001 4.50355 37.0188 5.29834C38.9375 6.09312 40.5775 7.43905 41.7312 9.1659C42.885 10.8928 43.5007 12.923 43.5005 14.9998ZM25.9393 32.666L20.303 38.3023C19.6094 39.0115 18.782 39.576 17.8688 39.9632C16.9555 40.3504 15.9744 40.5526 14.9825 40.5581C13.9905 40.5635 13.0073 40.3722 12.0898 39.995C11.1723 39.6179 10.3388 39.0625 9.63741 38.361C8.93604 37.6595 8.3808 36.8259 8.00383 35.9083C7.62686 34.9907 7.43566 34.0075 7.4413 33.0156C7.44694 32.0236 7.64931 31.0426 8.03668 30.1294C8.42405 29.2162 8.98874 28.3889 9.69804 27.6954L15.3324 22.061C15.6139 21.7796 15.772 21.3978 15.772 20.9998C15.772 20.6017 15.6139 20.22 15.3324 19.9385C15.0509 19.6571 14.6692 19.499 14.2712 19.499C13.8731 19.499 13.4914 19.6571 13.2099 19.9385L7.57554 25.5748C5.6063 27.544 4.5 30.2149 4.5 32.9998C4.5 35.7847 5.6063 38.4556 7.57554 40.4248C9.54477 42.394 12.2156 43.5003 15.0005 43.5003C17.7855 43.5003 20.4563 42.394 22.4255 40.4248L28.0618 34.7867C28.343 34.5052 28.5009 34.1236 28.5007 33.7257C28.5005 33.3278 28.3423 32.9463 28.0608 32.6651C27.7794 32.3839 27.3977 32.226 26.9999 32.2262C26.602 32.2264 26.2205 32.3846 25.9393 32.666Z" fill="#900B09"/>
</svg>
