<svg width="28" height="28" viewBox="0 0 28 28" fill="none" xmlns="http://www.w3.org/2000/svg">
<g clip-path="url(#clip0_3004_901)">
<path d="M17.989 21.397C18.0751 21.529 18.1239 21.6819 18.1304 21.8393C18.1368 21.9968 18.1005 22.1531 18.0255 22.2917C17.9504 22.4303 17.8393 22.546 17.7039 22.6267C17.5685 22.7074 17.4138 22.75 17.2562 22.75H1.119C0.961389 22.75 0.806707 22.7074 0.671299 22.6267C0.53589 22.546 0.424784 22.4303 0.349719 22.2917C0.274654 22.1531 0.238417 21.9968 0.244836 21.8393C0.251256 21.6819 0.300094 21.529 0.386191 21.397C1.61787 19.5011 3.42954 18.0543 5.55088 17.2725C4.37816 16.4917 3.48782 15.3543 3.01152 14.0285C2.53522 12.7026 2.49825 11.2586 2.90607 9.91012C3.3139 8.56161 4.14487 7.38013 5.2761 6.54041C6.40733 5.7007 7.77876 5.24731 9.1876 5.24731C10.5964 5.24731 11.9679 5.7007 13.0991 6.54041C14.2303 7.38013 15.0613 8.56161 15.4691 9.91012C15.8769 11.2586 15.84 12.7026 15.3637 14.0285C14.8874 15.3543 13.997 16.4917 12.8243 17.2725C14.9457 18.0543 16.7573 19.5011 17.989 21.397ZM27.6042 21.3806C26.3722 19.4927 24.5645 18.0521 22.4493 17.2725C23.8338 16.3399 24.8108 14.9148 25.1816 13.2872C25.5523 11.6597 25.2889 9.95199 24.445 8.51179C23.601 7.07159 22.24 6.00711 20.6389 5.53504C19.0378 5.06297 17.3169 5.21878 15.8267 5.97076C15.7697 6.00018 15.7199 6.04177 15.6807 6.09259C15.6416 6.14341 15.6141 6.2022 15.6002 6.26482C15.5864 6.32743 15.5864 6.39233 15.6004 6.45492C15.6144 6.51751 15.642 6.57626 15.6812 6.62701C16.7893 8.0093 17.4258 9.71011 17.4972 11.4803C17.5686 13.2505 17.0714 14.9971 16.0782 16.4642C16.014 16.5601 15.9903 16.6774 16.0122 16.7907C16.0341 16.904 16.0999 17.004 16.1953 17.069C17.4901 17.9728 18.5986 19.1177 19.4601 20.4411C19.8075 20.9731 19.9494 21.6135 19.8593 22.2425C19.8492 22.305 19.8527 22.3691 19.8698 22.4301C19.8868 22.4912 19.917 22.5478 19.958 22.5961C19.9991 22.6443 20.0502 22.6831 20.1078 22.7097C20.1653 22.7362 20.228 22.75 20.2913 22.75H26.8867C27.0793 22.75 27.2666 22.6865 27.4195 22.5692C27.5724 22.4519 27.6823 22.2875 27.7321 22.1014C27.7625 21.979 27.7669 21.8516 27.7448 21.7274C27.7228 21.6032 27.6749 21.485 27.6042 21.3806Z" fill="#1E1E1E"/>
</g>
<defs>
<clipPath id="clip0_3004_901">
<rect width="28" height="28" fill="white"/>
</clipPath>
</defs>
</svg>
