<svg width="48" height="48" viewBox="0 0 48 48" fill="none" xmlns="http://www.w3.org/2000/svg">
<path d="M43.0617 40.9392L33.6736 31.5529C36.3946 28.2861 37.7515 24.096 37.4619 19.8543C37.1723 15.6126 35.2585 11.6458 32.1187 8.77913C28.9789 5.91247 24.8548 4.36665 20.6043 4.46325C16.3537 4.55985 12.3041 6.29143 9.29777 9.29777C6.29143 12.3041 4.55985 16.3537 4.46325 20.6043C4.36665 24.8548 5.91247 28.9789 8.77913 32.1187C11.6458 35.2585 15.6126 37.1723 19.8543 37.4619C24.096 37.7515 28.2861 36.3946 31.5529 33.6736L40.9392 43.0617C41.0785 43.201 41.244 43.3116 41.4261 43.387C41.6082 43.4624 41.8033 43.5013 42.0004 43.5013C42.1975 43.5013 42.3927 43.4624 42.5748 43.387C42.7569 43.3116 42.9223 43.201 43.0617 43.0617C43.201 42.9223 43.3116 42.7569 43.387 42.5748C43.4624 42.3927 43.5013 42.1975 43.5013 42.0004C43.5013 41.8033 43.4624 41.6082 43.387 41.4261C43.3116 41.244 43.201 41.0785 43.0617 40.9392ZM7.50043 21.0004C7.50043 18.3304 8.29219 15.7203 9.77559 13.5002C11.259 11.2802 13.3674 9.54984 15.8342 8.52805C18.301 7.50627 21.0154 7.23893 23.6341 7.75983C26.2529 8.28073 28.6584 9.56648 30.5464 11.4545C32.4344 13.3425 33.7201 15.748 34.241 18.3667C34.7619 20.9855 34.4946 23.6999 33.4728 26.1667C32.451 28.6335 30.7207 30.7419 28.5006 32.2253C26.2806 33.7087 23.6705 34.5004 21.0004 34.5004C17.4212 34.4965 13.9898 33.0729 11.4589 30.542C8.92799 28.0111 7.5044 24.5796 7.50043 21.0004Z" fill="#900B09"/>
</svg>
