<svg width="48" height="48" viewBox="0 0 48 48" fill="none" xmlns="http://www.w3.org/2000/svg">
<path d="M47.6817 20.2327L42.8967 10.6589C42.7204 10.3065 42.4764 9.99234 42.1787 9.73426C41.881 9.47618 41.5354 9.27927 41.1615 9.15478C40.7877 9.03029 40.393 8.98065 40 9.00871C39.607 9.03676 39.2234 9.14196 38.871 9.3183L34.2079 11.6489L24.3848 9.05017C24.1327 8.98458 23.8681 8.98458 23.616 9.05017L13.7929 11.6489L9.12978 9.3183C8.77743 9.14196 8.3938 9.03676 8.0008 9.00871C7.60779 8.98065 7.21311 9.03029 6.83928 9.15478C6.46546 9.27927 6.11982 9.47618 5.82211 9.73426C5.52439 9.99234 5.28043 10.3065 5.10416 10.6589L0.319156 20.2308C0.142824 20.5831 0.0376255 20.9668 0.00956894 21.3598C-0.0184877 21.7528 0.031147 22.1475 0.155638 22.5213C0.28013 22.8951 0.477039 23.2408 0.735122 23.5385C0.993205 23.8362 1.30741 24.0801 1.65978 24.2564L6.72228 26.7895L17.1267 34.2202C17.28 34.3292 17.4523 34.4087 17.6348 34.4545L29.6348 37.4545C29.8861 37.5176 30.1494 37.5144 30.3992 37.4454C30.6489 37.3764 30.8765 37.2439 31.0598 37.0608L41.3854 26.7333L46.3392 24.2564C47.0503 23.9004 47.591 23.2766 47.8424 22.5221C48.0938 21.7675 48.0353 20.9441 47.6798 20.2327H47.6817ZM37.3898 26.4895L30.9379 21.322C30.6489 21.0906 30.2844 20.9742 29.9147 20.9953C29.545 21.0164 29.1962 21.1735 28.9354 21.4364C25.596 24.8002 21.8742 24.3745 19.5004 22.8745L27.6079 14.9995H33.5723L38.6742 25.2014L37.3898 26.4895ZM7.78728 11.9995L11.6254 13.9158L6.83103 23.4877L3.00041 21.5733L7.78728 11.9995ZM29.5373 34.3364L18.6417 31.6139L9.41666 25.0252L14.6667 14.5252L24.0004 12.052L25.8379 12.5377L17.4004 20.7277L17.3854 20.7445C17.0678 21.0622 16.8256 21.447 16.6766 21.8708C16.5276 22.2945 16.4756 22.7463 16.5246 23.1928C16.5735 23.6393 16.7221 24.0691 16.9594 24.4505C17.1966 24.8319 17.5165 25.1552 17.8954 25.3964C21.7504 27.8583 26.4023 27.4589 30.066 24.4589L35.2504 28.6233L29.5373 34.3364ZM41.1623 23.4858L36.3773 13.9233L40.2135 11.9995L45.0004 21.5733L41.1623 23.4858ZM24.7092 40.8614C24.6281 41.1856 24.4411 41.4735 24.1779 41.6793C23.9147 41.8852 23.5902 41.9972 23.256 41.9977C23.1328 41.9975 23.01 41.9824 22.8904 41.9527L15.0773 39.9989C14.8945 39.9538 14.7221 39.8743 14.5692 39.7645L9.62853 36.2358C9.32475 35.9973 9.12467 35.6508 9.06998 35.2684C9.01528 34.8861 9.11017 34.4974 9.33489 34.1833C9.55961 33.8691 9.89685 33.6538 10.2764 33.5821C10.6559 33.5104 11.0484 33.5878 11.3723 33.7983L16.0804 37.162L23.6254 39.0445C24.0113 39.1411 24.343 39.3869 24.5476 39.728C24.7523 40.069 24.8131 40.4774 24.7167 40.8633L24.7092 40.8614Z" fill="#900B09"/>
</svg>
