<svg width="320" height="58" viewBox="0 0 320 58" fill="none" xmlns="http://www.w3.org/2000/svg">
<path d="M318.985 45.7225H296.656V45.3586L304.42 37.7519C308.072 34.4288 310.901 31.5813 312.909 29.2101C314.917 26.8215 316.31 24.649 317.089 22.6932C317.835 20.8596 318.232 19.0034 318.279 17.1242L318.283 16.7484C318.283 13.8764 317.591 11.3081 316.207 9.04454L315.92 8.59633C314.345 6.22518 312.139 4.37303 309.3 3.0403C306.655 1.77459 303.577 1.10242 300.064 1.02335L299.356 1.01542C295.653 1.01544 292.381 1.7157 289.542 3.11765C286.704 4.51961 284.497 6.50184 282.922 9.06339L282.637 9.54928C281.253 12.0044 280.56 14.8624 280.56 18.1238H291.23C291.23 16.5338 291.52 15.1493 292.098 13.9699L292.217 13.7369C292.833 12.5849 293.694 11.6838 294.797 11.0337L295.021 10.9068C296.233 10.2491 297.652 9.92014 299.279 9.92014L299.855 9.93502C301.182 10.0032 302.384 10.3091 303.459 10.8542C304.688 11.46 305.657 12.3347 306.366 13.4771C307.076 14.6021 307.431 15.9433 307.431 17.5011L307.417 18.0227C307.355 19.2282 307.074 20.361 306.574 21.4209L306.347 21.8701C305.789 22.9209 305.025 23.9915 304.056 25.082C302.965 26.3282 301.616 27.7307 300.006 29.2884L281.079 46.8123V54.9128H318.985V45.7225ZM319.294 17.15C319.244 19.1549 318.82 21.129 318.032 23.068L318.033 23.069C317.199 25.1617 315.734 27.428 313.686 29.8636L313.684 29.8665C311.637 32.2849 308.771 35.1649 305.103 38.5025L298.771 44.7071H320V55.9282H280.064V46.369L299.316 28.5427C300.904 27.0047 302.228 25.6286 303.291 24.4136L303.297 24.4077C304.355 23.217 305.134 22.0765 305.655 20.9886C306.16 19.9188 306.416 18.7605 306.416 17.5011C306.416 16.1017 306.098 14.9553 305.507 14.0185L305.503 14.0125C304.972 13.157 304.275 12.4786 303.397 11.9718L303.01 11.7655L303 11.7606C301.931 11.2186 300.698 10.9356 299.279 10.9356C297.791 10.9356 296.543 11.2357 295.505 11.7993C294.47 12.3612 293.677 13.1599 293.112 14.2158C292.549 15.2685 292.246 16.5591 292.246 18.1238V19.1392H279.545V18.1238L279.554 17.4475C279.651 14.0881 280.475 11.1057 282.058 8.53188C283.738 5.79873 286.093 3.68924 289.093 2.20734C292.093 0.725538 295.523 2.28659e-05 299.356 0C303.284 0 306.754 0.695841 309.739 2.12405C312.725 3.52726 315.079 5.49442 316.766 8.03409C318.46 10.5846 319.299 13.5009 319.299 16.7484L319.294 17.15Z" fill="#303030"/>
<path d="M251.592 0C256.209 0 260.239 1.11551 263.633 3.39034H263.632C267.039 5.66188 269.631 8.94474 271.427 13.1836C273.225 17.4097 274.096 22.4856 274.079 28.3791L274.068 29.4818C273.964 34.9456 273.087 39.7017 271.403 43.7254C269.626 48.014 267.053 51.3414 263.665 53.6495C260.269 55.9618 256.229 57.0964 251.592 57.0964H251.588C247.096 57.0789 243.158 56.0053 239.816 53.8379L239.495 53.6247L239.493 53.6227C236.316 51.459 233.849 48.4003 232.075 44.4929L231.729 43.6996L231.728 43.6966C229.95 39.4047 229.088 34.2878 229.106 28.3761C229.106 22.484 229.977 17.4021 231.755 13.1617L231.756 13.1588C233.552 8.91983 236.137 5.64352 239.529 3.38836C242.938 1.11565 246.975 2.91845e-05 251.592 0ZM251.592 1.01542C247.144 1.01545 243.31 2.08814 240.091 4.23421L239.499 4.64474C236.583 6.75513 234.314 9.72508 232.691 13.5544C230.978 17.6391 230.121 22.5809 230.121 28.3791C230.104 34.1947 230.952 39.1712 232.666 43.3079C234.396 47.4443 236.862 50.603 240.064 52.7838C243.283 54.9646 247.126 56.0636 251.592 56.0809C255.778 56.0809 259.41 55.123 262.486 53.2062L263.093 52.8096C266.295 50.6288 268.753 47.4701 270.466 43.3337C272.089 39.4556 272.951 34.8319 273.052 29.4629L273.063 28.3791C273.08 22.5812 272.224 17.6485 270.493 13.5812C268.762 9.49657 266.287 6.38042 263.068 4.23421C260.066 2.22214 256.516 1.15308 252.419 1.02732L251.592 1.01542ZM251.592 10.2315C253.617 10.2315 255.374 10.9065 256.862 12.2564C258.368 13.6064 259.527 15.6235 260.341 18.3063C261.171 20.989 261.587 24.3465 261.587 28.3791C261.604 34.5062 260.704 39.102 258.887 42.1656L258.715 42.4482C256.918 45.3233 254.543 46.7607 251.592 46.7607V45.7453C254.213 45.7453 256.343 44.464 258.014 41.647C259.693 38.8174 260.589 34.4414 260.572 28.3821V28.3791C260.572 24.6562 260.211 21.5688 259.515 19.0936L259.371 18.6067L259.369 18.6008V18.5998C258.638 16.1902 257.642 14.4315 256.43 13.2431L256.185 13.013L256.18 13.009C254.88 11.8299 253.367 11.2469 251.592 11.2469C248.984 11.247 246.863 12.5145 245.193 15.2977C243.515 18.0943 242.603 22.4105 242.586 28.3821C242.586 32.4021 242.987 35.7031 243.762 38.3112C244.558 40.9165 245.648 42.7741 246.973 43.9792C248.292 45.162 249.816 45.7453 251.592 45.7453V46.7607L251.215 46.7528C249.347 46.6736 247.707 46.0014 246.295 44.7358C244.79 43.3685 243.622 41.3259 242.791 38.6086C241.978 35.8739 241.57 32.4639 241.57 28.3791C241.587 22.5276 242.449 18.0891 244.155 15.0637L244.322 14.7751C246.139 11.7462 248.563 10.2316 251.592 10.2315Z" fill="#303030"/>
<path d="M148.219 0.726562L156.476 35.3886L165.587 0.726562H177.669L186.766 35.5085L194.849 1.50697L195.035 0.726562H209.464L193.669 55.9279H181.185L171.614 23.0707L162.07 55.9279H149.586L133.791 0.726562H148.219ZM135.138 1.74198L150.351 54.9125H161.307L171.407 20.1494H171.823L181.947 54.9125H192.903L208.118 1.74198H195.838L187.036 38.764H186.569L176.885 1.74198H166.37L156.66 38.6857H156.218L147.418 1.74198H135.138Z" fill="#303030"/>
<path d="M132.056 28.3275C132.056 22.5293 130.956 17.5961 128.758 13.5286C126.713 9.71557 123.969 6.75412 120.525 4.64474L119.827 4.23421C116.306 2.22219 112.374 1.15313 108.032 1.02732L107.157 1.01542C102.432 1.01544 98.1915 2.08801 94.4356 4.23421C90.6798 6.36307 87.7117 9.46134 85.5309 13.5286L85.3296 13.9124C83.2828 17.9052 82.2596 22.7103 82.2596 28.3275L82.2724 29.4015C82.4003 34.7206 83.4864 39.2865 85.5309 43.0997C87.7117 47.1671 90.6797 50.2747 94.4356 52.4209C98.1914 54.567 102.432 55.6396 107.157 55.6397C111.554 55.6397 115.541 54.7044 119.117 52.8334L119.827 52.4467C123.6 50.3004 126.577 47.1929 128.758 43.1255C130.818 39.3123 131.914 34.7388 132.043 29.4044L132.056 28.3275ZM119.643 28.3275C119.643 24.896 119.16 22.0271 118.231 19.6915L118.039 19.2314L118.037 19.2255C117.06 16.9514 115.726 15.2391 114.052 14.0393L113.713 13.8063C111.873 12.5955 109.701 11.9738 107.157 11.9738C104.613 11.9738 102.441 12.5956 100.602 13.8063C98.7661 15.0143 97.3085 16.8034 96.2493 19.2314C95.2125 21.6478 94.6726 24.6681 94.6726 28.3275L94.6786 29.0068C94.7418 32.3625 95.2773 35.1584 96.2493 37.4237C97.3085 39.8517 98.7661 41.6408 100.602 42.8488C102.441 44.0595 104.613 44.6803 107.157 44.6803V45.6957C104.44 45.6957 102.068 45.0293 100.043 43.6966C98.0184 42.3639 96.4431 40.408 95.3182 37.8292C94.2798 35.4115 93.7281 32.4767 93.6632 29.0246L93.6572 28.3275C93.6572 24.5717 94.2104 21.4038 95.3182 18.8249C96.4432 16.2461 98.0183 14.2902 100.043 12.9575C102.068 11.6248 104.44 10.9584 107.157 10.9584C109.874 10.9584 112.246 11.6248 114.271 12.9575C116.296 14.2902 117.863 16.246 118.97 18.8249C120.095 21.4038 120.658 24.5717 120.658 28.3275L120.651 29.0246C120.585 32.4767 120.025 35.4115 118.97 37.8292C117.863 40.4081 116.296 42.3639 114.271 43.6966C112.246 45.0294 109.874 45.6957 107.157 45.6957V44.6803C109.701 44.6803 111.873 44.0596 113.713 42.8488C115.547 41.6417 116.995 39.8545 118.037 37.4286L118.039 37.4237C119.093 35.008 119.643 31.988 119.643 28.3275ZM133.057 29.4282C132.925 34.8854 131.803 39.6218 129.652 43.6044L129.653 43.6054C127.388 47.8303 124.279 51.0823 120.329 53.3292L120.328 53.3302C116.406 55.553 112.007 56.6551 107.157 56.6551C102.577 56.6551 98.4093 55.6782 94.6736 53.709L93.9319 53.3024C89.9993 51.0552 86.9001 47.8033 84.6355 43.5796C82.3581 39.332 81.2442 34.2342 81.2441 28.3275C81.2441 22.4039 82.3578 17.2968 84.6355 13.0487C86.9004 8.82445 90.0005 5.58074 93.9349 3.35068C97.8573 1.11002 102.273 2.74554e-05 107.157 0C112.007 0 116.405 1.11038 120.326 3.34968C124.277 5.57886 127.386 8.82184 129.651 13.0457C131.947 17.2945 133.071 22.4028 133.071 28.3275L133.057 29.4282Z" fill="#303030"/>
<path d="M43.783 1.74198V54.9125H77.8203V45.6439H55.025V1.74198H43.783ZM56.0404 44.6285H78.8357V55.9279H42.7676V0.726562H56.0404V44.6285Z" fill="#303030"/>
<path d="M1.01542 1.74198V54.9125H12.2574V32.9482H33.8846V23.6795H12.2574V11.0106H36.2208V1.74198H1.01542ZM37.2362 12.026H13.2728V22.6641H34.9V33.9636H13.2728V55.9279H0V0.726562H37.2362V12.026Z" fill="#303030"/>
</svg>
