<svg width="320" height="57" viewBox="0 0 320 57" fill="none" xmlns="http://www.w3.org/2000/svg">
<path d="M306.38 38.9629C306.38 37.831 306.087 36.8504 305.508 35.9897L305.389 35.8194L305.384 35.8115L305.378 35.8046C304.771 34.9421 303.895 34.2275 302.701 33.6813L302.458 33.5749L302.454 33.5729C301.325 33.0894 299.977 32.8036 298.389 32.7398L297.694 32.726H291.76V22.5093H297.694V23.5178H292.769V31.7175H297.694C299.688 31.7175 301.407 32.0274 302.851 32.6462C304.312 33.2651 305.429 34.1244 306.203 35.2245C306.994 36.3074 307.389 37.5535 307.389 38.9629C307.389 40.3553 307.019 41.5844 306.28 42.6502C305.541 43.7159 304.518 44.55 303.212 45.1516L302.965 45.2609C301.717 45.7898 300.295 46.0537 298.7 46.0537V45.0453C300.282 45.0453 301.638 44.7662 302.79 44.2357C303.95 43.7011 304.826 42.9778 305.452 42.076C306.065 41.1916 306.38 40.1658 306.38 38.9629ZM305.271 16.556C305.271 15.401 304.996 14.4334 304.476 13.6173L304.471 13.6094L304.466 13.6005C304.016 12.8642 303.402 12.2625 302.6 11.7963L302.245 11.6053L302.24 11.6023C301.289 11.1195 300.144 10.8608 298.777 10.8607C297.389 10.8607 296.145 11.1128 295.03 11.6013L295.02 11.6053C293.912 12.0757 293.053 12.7373 292.412 13.5818C291.79 14.4019 291.449 15.3678 291.405 16.5176L291.367 17.4877H278.67L278.688 16.4615C278.743 13.2254 279.671 10.3398 281.485 7.84124C283.281 5.36731 285.692 3.44764 288.688 2.07603C291.708 0.684054 295.095 0 298.829 0C302.36 9.96582e-06 305.519 0.60145 308.286 1.83179L308.834 2.08588C311.706 3.47675 313.973 5.37451 315.596 7.78904C317.243 10.1945 318.057 12.9011 318.041 15.8794C318.059 19.0673 317.059 21.7894 315.011 23.9718L315.012 23.9728C313.728 25.353 312.197 26.4001 310.436 27.1252C312.985 27.8689 315.084 29.0877 316.685 30.8213C318.922 33.2093 320.017 36.1963 320 39.7055C320.019 42.9252 319.084 45.8122 317.197 48.3307C315.341 50.8289 312.795 52.771 309.599 54.1717C306.39 55.5777 302.742 56.2674 298.674 56.2674C294.955 56.2674 291.584 55.6677 288.576 54.4484L287.98 54.1963L287.973 54.1944C285.04 52.8796 282.652 51.0908 280.84 48.8182L280.485 48.3573L280.48 48.3504C278.747 45.9761 277.808 43.261 277.652 40.2344L277.631 39.6247L277.613 38.5995H290.838L290.888 39.5538C290.946 40.6387 291.294 41.569 291.93 42.3774C292.516 43.0891 293.28 43.6779 294.244 44.1333L294.672 44.3204C295.84 44.7968 297.177 45.0453 298.7 45.0453V46.0537C297.271 46.0537 295.967 45.8502 294.788 45.4422L294.29 45.255C292.984 44.7222 291.936 43.9741 291.145 43.0116C290.371 42.0318 289.95 40.8971 289.881 39.608H278.639C278.691 42.6848 279.576 45.4006 281.295 47.7555C283.031 50.0933 285.394 51.9327 288.385 53.2735C291.206 54.5145 294.396 55.1736 297.957 55.2511L298.674 55.259C302.38 55.2589 305.694 54.6696 308.615 53.4912L309.194 53.2479C312.062 51.9909 314.349 50.2955 316.054 48.1623L316.388 47.7299C318.141 45.3921 319.009 42.7186 318.992 39.7104C319.008 36.6327 318.118 34.0383 316.321 31.9273L315.95 31.5117C313.921 29.3114 310.964 27.9616 307.079 27.463V27.0504C310.036 26.5175 312.434 25.2631 314.274 23.2864C316.13 21.3095 317.049 18.842 317.032 15.8854C317.049 13.1008 316.293 10.5909 314.763 8.35631C313.345 6.24524 311.39 4.54222 308.899 3.24699L308.394 2.99389C305.832 1.753 302.869 1.09288 299.506 1.01536L298.829 1.00847C295.219 1.00847 291.978 1.67028 289.107 2.99389C286.254 4.3003 283.985 6.11361 282.3 8.43411L281.994 8.87334C280.51 11.0912 279.745 13.6268 279.696 16.4792H290.396L290.41 16.2291C290.494 15.0749 290.848 14.0523 291.471 13.1613L291.609 12.9722C292.27 12.0999 293.123 11.4053 294.166 10.8883L294.625 10.6776C295.88 10.1275 297.265 9.85227 298.777 9.85227L299.329 9.86507C300.596 9.92711 301.718 10.2068 302.696 10.7032C303.831 11.2704 304.708 12.0614 305.326 13.0756C305.962 14.0725 306.28 15.2326 306.28 16.556C306.28 17.9484 305.919 19.1691 305.197 20.2176C304.475 21.249 303.461 22.0569 302.154 22.6413C301.026 23.1526 299.747 23.4401 298.316 23.504L297.694 23.5178V22.5093C299.262 22.5093 300.603 22.2374 301.739 21.7225L301.743 21.7205C302.903 21.2014 303.763 20.5049 304.366 19.6454C304.962 18.7809 305.271 17.7642 305.271 16.556Z" fill="#303030"/>
<path d="M249.869 0C254.456 0 258.458 1.10788 261.828 3.36714H261.827C265.211 5.62314 267.785 8.88353 269.569 13.0934C271.355 17.2905 272.22 22.3318 272.202 28.1849L272.192 29.2801C272.089 34.7065 271.217 39.43 269.545 43.4262C267.781 47.6855 265.225 50.9901 261.86 53.2824C258.488 55.5789 254.475 56.7057 249.869 56.7057H249.865C245.405 56.6884 241.494 55.6221 238.175 53.4695L237.855 53.2578L237.853 53.2558C234.698 51.1069 232.248 48.0691 230.486 44.1885L230.142 43.4006L230.141 43.3976C228.376 39.1351 227.52 34.0531 227.537 28.182C227.538 22.3302 228.402 17.283 230.169 13.0717L230.17 13.0687C231.954 8.8588 234.52 5.6049 237.889 3.36517C241.275 1.10801 245.284 2.89848e-05 249.869 0ZM249.869 1.00847C245.452 1.0085 241.645 2.07386 238.447 4.20524L237.859 4.61296C234.964 6.70891 232.71 9.65853 231.099 13.4617C229.397 17.5184 228.546 22.4264 228.546 28.1849C228.529 33.9607 229.371 38.9032 231.073 43.0116C232.792 47.1196 235.241 50.2568 238.421 52.4226C241.618 54.5885 245.435 55.68 249.869 55.6972C254.027 55.6972 257.634 54.7458 260.689 52.8422L261.293 52.4482C264.472 50.2824 266.913 47.1453 268.615 43.0372C270.226 39.1856 271.082 34.5936 271.183 29.2613L271.194 28.1849C271.211 22.4267 270.36 17.5277 268.641 13.4883C266.922 9.43159 264.464 6.33676 261.267 4.20524C258.286 2.20693 254.76 1.14519 250.691 1.02029L249.869 1.00847ZM249.869 10.1615C251.881 10.1615 253.626 10.8318 255.104 12.1725C256.599 13.5133 257.751 15.5166 258.559 18.181C259.384 20.8453 259.797 24.1799 259.797 28.1849C259.814 34.2701 258.92 38.8345 257.115 41.8771L256.944 42.1577C255.159 45.0132 252.8 46.4408 249.869 46.4408V45.4323C252.473 45.4323 254.588 44.1598 256.248 41.362C257.915 38.5518 258.805 34.2058 258.788 28.1879V28.1849C258.788 24.4875 258.43 21.4212 257.738 18.963L257.595 18.4794L257.593 18.4735V18.4725C256.868 16.0794 255.879 14.3327 254.674 13.1524L254.431 12.924L254.426 12.92C253.135 11.7489 251.632 11.17 249.869 11.17C247.28 11.17 245.173 12.4289 243.514 15.193C241.848 17.9705 240.942 22.2572 240.925 28.1879C240.925 32.1803 241.324 35.4588 242.093 38.049C242.884 40.6365 243.966 42.4814 245.282 43.6783C246.592 44.853 248.106 45.4323 249.869 45.4323V46.4408L249.495 46.4329C247.64 46.3543 246.011 45.6866 244.609 44.4297C243.114 43.0718 241.954 41.0431 241.129 38.3445C240.321 35.6285 239.917 32.2417 239.917 28.1849C239.933 22.3734 240.789 17.9653 242.483 14.9606L242.65 14.674C244.455 11.6659 246.861 10.1616 249.869 10.1615Z" fill="#303030"/>
<path d="M147.204 0.72168L155.405 35.1465L164.454 0.72168H176.453L185.488 35.2657L193.515 1.49674L193.7 0.72168H208.031L192.343 55.5453H179.945L170.439 22.9129L160.96 55.5453H148.561L132.875 0.72168H147.204ZM134.212 1.73015L149.322 54.5369H160.203L170.234 20.0116H170.646L180.701 54.5369H191.583L206.693 1.73015H194.497L185.756 38.4989H185.292L175.674 1.73015H165.231L155.587 38.4211H155.149L146.409 1.73015H134.212Z" fill="#303030"/>
<path d="M131.151 28.1337C131.151 22.3751 130.059 17.4757 127.876 13.4361C125.845 9.6491 123.12 6.7079 119.7 4.61296L119.006 4.20524C115.509 2.20698 111.605 1.14524 107.292 1.02029L106.423 1.00847C101.73 1.0085 97.5189 2.07373 93.7887 4.20524C90.0586 6.31954 87.1108 9.3966 84.9449 13.4361L84.745 13.8172C82.7122 17.7827 81.696 22.5549 81.696 28.1337L81.7088 29.2003C81.8357 34.483 82.9144 39.0177 84.9449 42.8048C87.1108 46.8444 90.0585 49.9307 93.7887 52.0622C97.5188 54.1937 101.73 55.2589 106.423 55.259C110.79 55.259 114.75 54.3301 118.301 52.4719L119.006 52.0878C122.754 49.9563 125.71 46.87 127.876 42.8304C129.922 39.0433 131.011 34.5011 131.139 29.2032L131.151 28.1337ZM118.823 28.1337C118.823 24.7257 118.344 21.8764 117.422 19.5568L117.231 19.0998L117.229 19.0939C116.259 16.8354 114.933 15.1348 113.271 13.9433L112.934 13.7118C111.107 12.5093 108.95 11.8919 106.423 11.8919C103.897 11.8919 101.74 12.5094 99.9124 13.7118C98.0896 14.9116 96.6419 16.6885 95.59 19.0998C94.5603 21.4997 94.0241 24.4993 94.0241 28.1337L94.03 28.8083C94.0928 32.1411 94.6247 34.9179 95.59 37.1676C96.642 39.579 98.0895 41.3559 99.9124 42.5556C101.74 43.7581 103.897 44.3746 106.423 44.3746V45.3831C103.724 45.383 101.369 44.7212 99.358 43.3976C97.347 42.074 95.7825 40.1315 94.6652 37.5704C93.6339 35.1692 93.086 32.2544 93.0215 28.8261L93.0156 28.1337C93.0156 24.4035 93.5651 21.2573 94.6652 18.6961C95.7825 16.1349 97.3469 14.1924 99.358 12.8688C101.369 11.5452 103.724 10.8834 106.423 10.8834C109.122 10.8834 111.477 11.5452 113.488 12.8688C115.499 14.1924 117.055 16.1349 118.155 18.6961C119.273 21.2573 119.832 24.4035 119.832 28.1337L119.825 28.8261C119.759 32.2545 119.203 35.1692 118.155 37.5704C117.055 40.1316 115.499 42.074 113.488 43.3976C111.477 44.7213 109.122 45.3831 106.423 45.3831V44.3746C108.95 44.3746 111.107 43.7581 112.934 42.5556C114.755 41.3568 116.194 39.5818 117.229 37.1725L117.231 37.1676C118.277 34.7685 118.823 31.7691 118.823 28.1337ZM132.146 29.2269C132.015 34.6467 130.901 39.3507 128.764 43.3061L128.765 43.307C126.515 47.503 123.428 50.7328 119.505 52.9643L119.504 52.9653C115.609 55.1729 111.24 56.2674 106.423 56.2674C101.875 56.2674 97.7353 55.2973 94.0251 53.3415L93.2884 52.9377C89.3828 50.7059 86.3048 47.4762 84.0556 43.2814C81.7938 39.0629 80.6875 34 80.6875 28.1337C80.6875 22.2506 81.7935 17.1784 84.0556 12.9594C86.3051 8.76407 89.384 5.54256 93.2914 3.32775C97.187 1.10242 101.573 2.72676e-05 106.423 0C111.24 0 115.608 1.10279 119.502 3.32677C123.426 5.54068 126.513 8.76148 128.763 12.9565C131.044 17.1762 132.16 22.2495 132.16 28.1337L132.146 29.2269Z" fill="#303030"/>
<path d="M43.4831 1.73015V54.5369H77.2875V45.3316H54.6481V1.73015H43.4831ZM55.6566 44.3232H78.2959V55.5453H42.4746V0.72168H55.6566V44.3232Z" fill="#303030"/>
<path d="M1.00847 1.73015V54.5369H12.1735V32.7228H33.6527V23.5176H12.1735V10.9354H35.973V1.73015H1.00847ZM36.9815 11.9438H13.182V22.5091H34.6612V33.7313H13.182V55.5453H0V0.72168H36.9815V11.9438Z" fill="#303030"/>
</svg>
