<svg width="320" height="60" viewBox="0 0 320 60" fill="none" xmlns="http://www.w3.org/2000/svg">
<path d="M318.935 1.82629H307.857L294.057 10.5632V21.0155L306.822 13.0126H307.149V57.5705H318.935V1.82629ZM319.999 58.6351H306.084V14.7321L292.992 22.9388V9.97687L307.287 0.925978L307.548 0.761719H319.999V58.6351Z" fill="#303030"/>
<path d="M263.768 0C268.609 0 272.834 1.16951 276.392 3.55445H276.391C279.963 5.93594 282.68 9.37769 284.563 13.8217C286.449 18.2524 287.361 23.574 287.343 29.7528L287.332 30.9088C287.224 36.6371 286.303 41.6234 284.538 45.8419C282.675 50.3381 279.978 53.8265 276.425 56.2463C272.866 58.6706 268.63 59.86 263.768 59.86H263.764C259.055 59.8418 254.926 58.7162 251.423 56.4439L251.086 56.2203L251.084 56.2183C247.753 53.9499 245.167 50.7431 243.306 46.6465L242.943 45.8148L242.942 45.8117C241.079 41.3121 240.175 35.9474 240.194 29.7496C240.194 23.5723 241.107 18.2444 242.971 13.7988L242.973 13.7957C244.856 9.35159 247.565 5.91669 251.121 3.55237C254.696 1.16965 258.927 3.05971e-05 263.768 0ZM263.768 1.06457C259.105 1.0646 255.086 2.18922 251.711 4.43916L251.09 4.86956C248.033 7.08211 245.654 10.1958 243.953 14.2105C242.156 18.4929 241.258 23.6739 241.258 29.7528C241.24 35.8498 242.129 41.0673 243.926 45.4042C245.74 49.7407 248.326 53.0524 251.682 55.3388C255.058 57.6251 259.086 58.7773 263.768 58.7955C268.157 58.7955 271.964 57.7912 275.189 55.7816L275.826 55.3658C279.183 53.0794 281.76 49.7679 283.556 45.4312C285.257 41.3654 286.161 36.5179 286.267 30.8891L286.279 29.7528C286.297 23.6742 285.399 18.5027 283.584 14.2386C281.77 9.95624 279.174 6.68926 275.799 4.43916C272.652 2.3297 268.93 1.2089 264.635 1.07704L263.768 1.06457ZM263.768 10.7268C265.891 10.7268 267.733 11.4344 269.294 12.8497C270.872 14.265 272.088 16.3797 272.94 19.1923C273.811 22.0049 274.247 25.5249 274.247 29.7528C274.265 36.1765 273.322 40.9947 271.416 44.2065L271.237 44.5028C269.352 47.5171 266.862 49.0241 263.768 49.0241V47.9596C266.516 47.9596 268.75 46.6162 270.502 43.6628C272.261 40.6963 273.201 36.1085 273.183 29.7559V29.7528C273.183 25.8497 272.805 22.6128 272.074 20.0178L271.924 19.5074L271.922 19.5011V19.5001C271.156 16.9739 270.111 15.13 268.84 13.8841L268.583 13.6429L268.578 13.6387C267.215 12.4025 265.629 11.7913 263.768 11.7913C261.035 11.7914 258.81 13.1203 257.059 16.0382C255.3 18.9701 254.344 23.4953 254.326 29.7559C254.326 33.9704 254.747 37.4313 255.559 40.1656C256.394 42.897 257.537 44.8445 258.925 46.108C260.309 47.348 261.907 47.9595 263.768 47.9596V49.0241L263.373 49.0158C261.415 48.9328 259.695 48.228 258.215 46.9012C256.637 45.4677 255.412 43.3262 254.541 40.4774C253.689 37.6104 253.262 34.0352 253.262 29.7528C253.279 23.618 254.182 18.9647 255.971 15.7928L256.147 15.4903C258.052 12.3148 260.592 10.7268 263.768 10.7268Z" fill="#303030"/>
<path d="M155.392 0.761719L164.049 37.1015L173.601 0.761719H186.268L195.805 37.2273L204.279 1.5799L204.474 0.761719H219.602L203.042 58.6351H189.954L179.92 24.1874L169.913 58.6351H156.825L140.266 0.761719H155.392ZM141.677 1.82629L157.627 57.5705H169.114L179.702 21.1247H180.138L190.752 57.5705H202.239L218.19 1.82629H205.315L196.088 40.6403H195.598L185.445 1.82629H174.421L164.241 40.5582H163.779L154.552 1.82629H141.677Z" fill="#303030"/>
<path d="M138.445 29.6987C138.445 23.6198 137.292 18.4478 134.987 14.1835C132.844 10.1858 129.967 7.08104 126.356 4.86956L125.624 4.43916C121.933 2.32975 117.811 1.20894 113.258 1.07704L112.341 1.06457C107.387 1.0646 102.941 2.18908 99.0038 4.43916C95.0662 6.67107 91.9545 9.9193 89.6681 14.1835L89.457 14.5858C87.3112 18.7719 86.2384 23.8096 86.2384 29.6987L86.2519 30.8246C86.3859 36.4012 87.5247 41.1881 89.6681 45.1859C91.9545 49.4502 95.0662 52.7081 99.0038 54.9583C102.941 57.2083 107.387 58.3328 112.341 58.3328C116.951 58.3328 121.131 57.3523 124.88 55.3907L125.624 54.9853C129.58 52.7352 132.701 49.4772 134.987 45.2129C137.147 41.2151 138.296 36.4203 138.431 30.8277L138.445 29.6987ZM125.431 29.6987C125.431 26.1011 124.925 23.0933 123.951 20.6447L123.75 20.1623L123.748 20.1561C122.724 17.7719 121.325 15.9767 119.57 14.7189L119.214 14.4746C117.285 13.2052 115.008 12.5534 112.341 12.5534C109.674 12.5534 107.397 13.2052 105.468 14.4746C103.544 15.7411 102.016 17.6168 100.905 20.1623C99.8183 22.6957 99.2523 25.8622 99.2523 29.6987L99.2585 30.4108C99.3248 33.929 99.8863 36.8602 100.905 39.2351C102.016 41.7806 103.544 43.6563 105.468 44.9228C107.397 46.1922 109.674 46.843 112.341 46.843V47.9076C109.492 47.9075 107.006 47.2089 104.883 45.8117C102.76 44.4145 101.108 42.3639 99.9291 39.6603C98.8404 37.1256 98.262 34.0487 98.194 30.4296L98.1877 29.6987C98.1877 25.761 98.7678 22.4398 99.9291 19.7361C101.109 17.0325 102.76 14.9819 104.883 13.5847C107.006 12.1874 109.492 11.4888 112.341 11.4888C115.19 11.4888 117.676 12.1875 119.799 13.5847C121.922 14.9819 123.565 17.0324 124.726 19.7361C125.906 22.4398 126.495 25.761 126.495 29.6987L126.488 30.4296C126.419 34.0487 125.832 37.1256 124.726 39.6603C123.565 42.364 121.922 44.4145 119.799 45.8117C117.676 47.209 115.19 47.9076 112.341 47.9076V46.843C115.008 46.843 117.285 46.1922 119.214 44.9228C121.137 43.6574 122.655 41.7836 123.748 39.2403L123.75 39.2351C124.855 36.7026 125.431 33.5363 125.431 29.6987ZM139.495 30.8527C139.357 36.5739 138.18 41.5397 135.925 45.715L135.926 45.7161C133.551 50.1455 130.292 53.5549 126.15 55.9105L126.149 55.9116C122.038 58.242 117.426 59.3974 112.341 59.3974C107.54 59.3974 103.17 58.3733 99.2533 56.3087L98.4757 55.8825C94.3528 53.5265 91.1036 50.1172 88.7293 45.689C86.3417 41.2358 85.1739 35.8913 85.1738 29.6987C85.1738 23.4884 86.3414 18.134 88.7293 13.6803C91.1039 9.25159 94.354 5.85087 98.4788 3.51286C102.591 1.16375 107.221 2.87844e-05 112.341 0C117.426 0 122.037 1.16413 126.147 3.51182C130.289 5.84889 133.549 9.24886 135.924 13.6772C138.331 18.1316 139.509 23.4871 139.509 29.6987L139.495 30.8527Z" fill="#303030"/>
<path d="M45.9005 1.82629V57.5705H81.5853V47.8532H57.6866V1.82629H45.9005ZM58.7512 46.7886H82.6499V58.6351H44.8359V0.761719H58.7512V46.7886Z" fill="#303030"/>
<path d="M1.06457 1.82629V57.5705H12.8507V34.543H35.5247V24.8257H12.8507V11.5436H37.974V1.82629H1.06457ZM39.0386 12.6081H13.9153V23.7611H36.5893V35.6076H13.9153V58.6351H0V0.761719H39.0386V12.6081Z" fill="#303030"/>
</svg>
